<svg width="32" height="32" viewBox="0 0 32 32" fill="none" xmlns="http://www.w3.org/2000/svg">
<path d="M26.1773 10.6626C26.1947 10.896 26.1947 11.128 26.1947 11.36C26.1947 18.46 20.7907 26.6413 10.9147 26.6413C7.87199 26.6413 5.04532 25.76 2.66666 24.2293C3.09866 24.2786 3.51466 24.296 3.96399 24.296C6.47466 24.296 8.78532 23.448 10.632 22.0013C8.27066 21.952 6.29199 20.4053 5.60932 18.2773C5.94132 18.3266 6.27466 18.36 6.62399 18.36C7.10532 18.36 7.58932 18.2933 8.03866 18.1773C5.57599 17.6786 3.73199 15.5173 3.73199 12.9066V12.84C4.44799 13.2386 5.27866 13.488 6.15866 13.5213C4.71199 12.5586 3.76399 10.912 3.76399 9.04931C3.76399 8.05198 4.02932 7.13731 4.49466 6.33998C7.13866 9.59731 11.1133 11.7266 15.5693 11.96C15.4867 11.56 15.436 11.1453 15.436 10.7293C15.436 7.76931 17.8307 5.35864 20.8067 5.35864C22.3533 5.35864 23.7493 6.00664 24.7307 7.05464C25.944 6.82131 27.1067 6.37198 28.1387 5.75731C27.74 7.00398 26.8907 8.05198 25.7773 8.71731C26.8587 8.59998 27.9067 8.30131 28.8693 7.88531C28.1387 8.94931 27.2253 9.89731 26.1773 10.6626Z" fill="black"/>
</svg>
