<svg width="32" height="32" viewBox="0 0 32 32" fill="none" xmlns="http://www.w3.org/2000/svg">
<path d="M27.9294 11.0733C27.9147 10.0639 27.728 9.06261 27.3707 8.11861C26.7454 6.50661 25.472 5.23194 23.86 4.60794C22.928 4.25728 21.9427 4.06928 20.9454 4.04794C19.6627 3.99061 19.256 3.97461 16 3.97461C12.744 3.97461 12.3267 3.97461 11.0534 4.04794C10.0574 4.06928 9.07203 4.25728 8.14003 4.60794C6.52803 5.23194 5.25337 6.50661 4.62937 8.11861C4.2787 9.05061 4.08937 10.0359 4.0707 11.0319C4.01337 12.3159 3.99603 12.7226 3.99603 15.9786C3.99603 19.2346 3.99603 19.6506 4.0707 20.9253C4.0907 21.9226 4.2787 22.9066 4.62937 23.8413C5.2547 25.4519 6.52803 26.7266 8.14137 27.3506C9.06937 27.7133 10.0547 27.9186 11.0547 27.9506C12.3387 28.0079 12.7454 28.0253 16.0014 28.0253C19.2574 28.0253 19.6747 28.0253 20.948 27.9506C21.944 27.9306 22.9294 27.7426 23.8627 27.3919C25.4747 26.7666 26.748 25.4919 27.3734 23.8813C27.724 22.9479 27.912 21.9639 27.932 20.9653C27.9894 19.6826 28.0067 19.2759 28.0067 16.0186C28.004 12.7626 28.004 12.3493 27.9294 11.0733ZM15.992 22.1359C12.5867 22.1359 9.82803 19.3773 9.82803 15.9719C9.82803 12.5666 12.5867 9.80794 15.992 9.80794C19.3947 9.80794 22.156 12.5666 22.156 15.9719C22.156 19.3773 19.3947 22.1359 15.992 22.1359ZM22.4014 11.0173C21.6054 11.0173 20.964 10.3746 20.964 9.57994C20.964 8.78528 21.6054 8.14261 22.4014 8.14261C23.1947 8.14261 23.8374 8.78528 23.8374 9.57994C23.8374 10.3746 23.1947 11.0173 22.4014 11.0173Z" fill="black"/>
<path d="M15.992 19.976C18.2033 19.976 19.996 18.1834 19.996 15.972C19.996 13.7607 18.2033 11.968 15.992 11.968C13.7806 11.968 11.988 13.7607 11.988 15.972C11.988 18.1834 13.7806 19.976 15.992 19.976Z" fill="black"/>
</svg>
